# xmcd
#
# Track frame offsets:
#  150
#  18325
#  35822
#  53885
#  68942
#  83787
#  100335
#  112240
#  124552
#  140255
#  154255
#  166807
#
# Disc length: 2413 seconds
#
# Revision: 0
# Processed by: cddbd v1.5.1PL2 Copyright (c) Steve Scherf et al.
# Submitted via: Collectorz.com_Music_Collector 6.9
#
DISCID=a1096b0c
DTITLE=Various Artist - Ultimate Country Hits Vol. III - Disc 3
DYEAR=1900
DGENRE=General Country
TTITLE0=Brown, T. Graham - Don't Go To Strangers
TTITLE1=Raven, Eddy - Joe Knows How To Live
TTITLE2=Pirates of the Mississippi - Feed Jake
TTITLE3=Steve Wariner - I'm Already Taken
TTITLE4=Johnny Lee and Lane Brody - The Yellow Rose
TTITLE5=Morris, Gary - I'll Never Stop Loving You
TTITLE6=Sawyer Brown - This Missin' You Heart Of Mine
TTITLE7=Tanya Tucker - Strong Enough To Bend
TTITLE8=Dalton, Lacy J. - Takin' It Easy
TTITLE9=Mickey Gilley - You Don't Know Me
TTITLE10=Lee Greenwood - Holdin' A Good Hand
TTITLE11=Suzy Bogguss - Drive South
EXTD=
EXTT0=
EXTT1=
EXTT2=
EXTT3=
EXTT4=
EXTT5=
EXTT6=
EXTT7=
EXTT8=
EXTT9=
EXTT10=
EXTT11=
PLAYORDER=
